<svg id="Layer_1" data-name="Layer 1" xmlns="http://www.w3.org/2000/svg" xmlns:xlink="http://www.w3.org/1999/xlink" viewBox="0 0 361.08 562.98"><defs><style>.cls-1,.cls-9{fill:none;}.cls-2{fill:#141318;}.cls-3{fill:#efcaab;}.cls-4{fill:#050606;}.cls-15,.cls-23,.cls-5{fill:#d99d66;}.cls-6{clip-path:url(#clip-path);}.cls-7{clip-path:url(#clip-path-3);}.cls-8{fill:#f0d7ba;}.cls-9{stroke:#d4aa82;stroke-linecap:round;stroke-miterlimit:10;stroke-width:1.07px;}.cls-10{fill:#050407;}.cls-11,.cls-14{fill:#710e1f;}.cls-12{fill:#b9232a;}.cls-13{fill:#eb3035;}.cls-14{opacity:0.4;}.cls-15{opacity:0.3;}.cls-16{fill:#f8f7f1;}.cls-17{fill:#b32126;}.cls-18{fill:#b9242a;}.cls-19{fill:#141314;}.cls-20{fill:#151414;}.cls-21{fill:#0c0d0d;}.cls-22{fill:#d24c4c;}.cls-23{opacity:0.6;}</style><clipPath id="clip-path" transform="translate(-439.55 -355.13)"><rect class="cls-1" x="626.36" y="796.19" width="18.57" height="3.38"/></clipPath><clipPath id="clip-path-3" transform="translate(-439.55 -355.13)"><rect class="cls-1" x="588.7" y="796.19" width="18.66" height="3.67"/></clipPath></defs><title>logo</title><path class="cls-2" d="M769.93,787.57c-11.86,5.63-39.55,10.71-73.88,14.37-53.34,5.68-122.71,7.89-173.73,3.25h0c-30.13-2.73-53.85-7.87-64.09-16.1-38.76-31.15,7.61-104.35,7.61-104.35l-7.61-50.46C374.84,430.95,598,420.47,598,420.47,869.33,405,763.86,665.92,763.86,665.92h0C812.57,724,811.12,768.06,769.93,787.57Z" transform="translate(-439.55 -355.13)"/><path class="cls-3" d="M754,651.06s-10.58,81.6-91.12,105a166,166,0,0,1-46.5,6.19c-19.58,0-36.53-2.1-51.2-5.74-91.41-22.6-94.41-104.33-94.41-104.33a86.3,86.3,0,0,1-.16-9.77c.57-17.82,5.76-57.31,37.4-94.82,55.31-7.49,150.53-17.68,207.51-8.37,23.75,26.86,39,61.32,39.54,94.71A109.65,109.65,0,0,1,754,651.06Z" transform="translate(-439.55 -355.13)"/><path class="cls-4" d="M631.72,805.77a3.92,3.92,0,1,1-3.89-3.43,3.68,3.68,0,0,1,3.89,3.43Z" transform="translate(-439.55 -355.13)"/><polygon class="cls-3" points="157.14 404.38 195.18 405.1 195.18 429.87 157.14 429.87 157.14 404.38"/><polygon class="cls-3" points="227.18 562.98 130.48 562.77 102.93 443.7 156.74 428.63 195.12 428.59 252.48 443.09 227.18 562.98"/><path class="cls-5" d="M618.13,816.22s.18.52.41,1.29.54,1.79.8,2.87a9.53,9.53,0,0,1,.33,1.6,4,4,0,0,1-.16,1.4,5,5,0,0,1-.56,1.35.1.1,0,0,1-.12,0,0,0,0,0,1,0,0,4.9,4.9,0,0,1-.48-1.34,3.61,3.61,0,0,1-.11-.64,3.42,3.42,0,0,1-.08-.68,5.09,5.09,0,0,1,0-.75c0-.26,0-.52,0-.78,0-1.05-.12-2.13-.14-2.94s0-1.35,0-1.35a.07.07,0,0,1,.08-.07s.07,0,.07.05Z" transform="translate(-439.55 -355.13)"/><path class="cls-5" d="M625.43,800.51a9.26,9.26,0,0,1,.73-.91,13.76,13.76,0,0,1,2.34-2.05,10.69,10.69,0,0,1,4.1-1.86,8.79,8.79,0,0,1,1.26-.21,8.39,8.39,0,0,1,1.33-.07c.87,0,1.72,0,2.6,0,1.73,0,3.46,0,5.09.09s3.12.24,4.41.36c2.58.26,4.3.61,4.3.61s.06.05.05.09a.06.06,0,0,1-.05.06,42.38,42.38,0,0,1-4.36.37c-1.31.06-2.82,0-4.44,0s-3.34-.28-5.07-.42c-.86-.08-1.74-.15-2.57-.2a6.53,6.53,0,0,0-1.2,0,7.36,7.36,0,0,0-1.18.11,12.32,12.32,0,0,0-2.16.57,12.85,12.85,0,0,0-1.82.88,13.34,13.34,0,0,0-2.44,1.81,9.14,9.14,0,0,0-.8.83s-.08,0-.11,0a.07.07,0,0,1,0-.1Z" transform="translate(-439.55 -355.13)"/><g class="cls-6"><g class="cls-6"><path class="cls-5" d="M626.38,799.45a9.69,9.69,0,0,1,2.32-1.88,10.37,10.37,0,0,1,1.33-.68,8.12,8.12,0,0,1,1.63-.48,8.35,8.35,0,0,1,1.84-.17h3.58c.59,0,1.17,0,1.72,0,1.12,0,2.15.11,3.06.19a25.33,25.33,0,0,1,3,.46.08.08,0,0,1,.06.09.09.09,0,0,1-.06.05,20.48,20.48,0,0,1-3,.51,25.49,25.49,0,0,1-3.11.16c-.56,0-1.15,0-1.75-.07l-1.79-.18-1.8-.15a6.83,6.83,0,0,0-1.62,0,7.6,7.6,0,0,0-1.51.3A8.36,8.36,0,0,0,629,798a12.76,12.76,0,0,0-1.83,1,5.94,5.94,0,0,0-.64.49.1.1,0,0,1-.11,0,.08.08,0,0,1,0-.09" transform="translate(-439.55 -355.13)"/></g></g><path class="cls-5" d="M607.87,800.59a10.6,10.6,0,0,0-.79-.84,13.57,13.57,0,0,0-4.26-2.69,12.3,12.3,0,0,0-2.17-.57,7.24,7.24,0,0,0-1.17-.11,6.6,6.6,0,0,0-1.2,0c-.83,0-1.71.12-2.57.2-1.72.13-3.44.32-5.05.42s-3.15.09-4.46,0a42,42,0,0,1-4.35-.37s-.07,0-.06-.08a.09.09,0,0,1,.06-.07s1.73-.35,4.3-.61c1.28-.12,2.79-.28,4.42-.36s3.35,0,5.09-.09c.87,0,1.72,0,2.59,0a8.22,8.22,0,0,1,1.32.07,8.84,8.84,0,0,1,1.27.21,11.64,11.64,0,0,1,2.27.78,12.1,12.1,0,0,1,1.84,1.08,13.45,13.45,0,0,1,2.32,2.05,9.25,9.25,0,0,1,.74.91.08.08,0,0,1-.13.08Z" transform="translate(-439.55 -355.13)"/><g class="cls-7"><g class="cls-7"><path class="cls-5" d="M607.22,799.84a7.88,7.88,0,0,0-.62-.51,12.72,12.72,0,0,0-1.81-1.14,9.9,9.9,0,0,0-1.31-.55,8,8,0,0,0-1.52-.36,6.3,6.3,0,0,0-1.64,0l-1.8.16-1.81.18c-.6,0-1.19.07-1.77.08a23.59,23.59,0,0,1-3.14-.16,18.6,18.6,0,0,1-3-.51s-.07,0-.06-.08a.06.06,0,0,1,.06,0,24,24,0,0,1,3-.48c.92-.08,2-.18,3.1-.19s2.35.07,3.56.05h1.82a8.25,8.25,0,0,1,1.87.21,9,9,0,0,1,2.93,1.3,10.41,10.41,0,0,1,1.7,1.39,7,7,0,0,1,.56.6.07.07,0,0,1,0,.11.09.09,0,0,1-.11,0" transform="translate(-439.55 -355.13)"/></g></g><path class="cls-3" d="M473.4,631.37s-20,2.3-14.1,16.8,6.17,18.25,10.12,18.49a38.08,38.08,0,0,0,9.16-1Z" transform="translate(-439.55 -355.13)"/><path class="cls-8" d="M474.17,644.54s-10.24,2.23-3.46,12.34Z" transform="translate(-439.55 -355.13)"/><path class="cls-9" d="M472.28,640.94s-10.24,2.23-3.46,12.34" transform="translate(-439.55 -355.13)"/><path class="cls-3" d="M754.43,627.06s20,2.31,14.1,16.8-6.17,18.25-10.12,18.49a38.1,38.1,0,0,1-9.16-1Z" transform="translate(-439.55 -355.13)"/><path class="cls-9" d="M753.65,640.24s10.24,2.23,3.46,12.34" transform="translate(-439.55 -355.13)"/><path class="cls-10" d="M769.93,787.57c-11.86,5.63-39.55,10.71-73.88,14.37a115,115,0,0,1,17.78-4.06c76.6-12.15,50-132,50-132h0C812.57,724,811.12,768.06,769.93,787.57Z" transform="translate(-439.55 -355.13)"/><path class="cls-10" d="M522.29,805.17c-30.13-2.73-53.85-7.87-64.09-16.1-38.76-31.15,7.61-104.35,7.61-104.35S483,795.17,522.29,805.17Z" transform="translate(-439.55 -355.13)"/><path class="cls-11" d="M735.12,445a89.25,89.25,0,0,1-16.94,5.12c-84.12,17.5-111.75-59.34-65-66.42,0,0,21.32-30.88,46.87-28.48,5.35.5,12.93,4.18,20.81,9.86C747.72,384.42,778,426.73,735.12,445Z" transform="translate(-439.55 -355.13)"/><path class="cls-12" d="M735.12,445c-18.55-4.05-33.12-8.94-20-12.74,27.08-7.86,6.69-64.22,6.69-64.22l-.89-3C747.72,384.42,778,426.73,735.12,445Z" transform="translate(-439.55 -355.13)"/><path class="cls-13" d="M785.77,584.13a7.85,7.85,0,0,1-3.88-1.47h0C759,568.33,683.43,453.79,566.2,462.28c-125.08,9.07-107.91,34.24-100.19,6.2,0,0-12.12-73.43,90.49-82.58l.61-.05c102.35-8.92,184.68,34.08,214.77,94.64S802.59,584.05,785.77,584.13Z" transform="translate(-439.55 -355.13)"/><path class="cls-14" d="M781.89,582.65C759,568.33,683.43,453.79,566.2,462.28c-125.08,9.07-107.91,34.24-100.19,6.2,0,0-12.12-73.43,90.49-82.58l.61-.05c-12.41,6.54-70.2,38.62-43.11,55.63,30.26,19,246.9-10.48,266.16,128.44Q781.08,576.66,781.89,582.65Z" transform="translate(-439.55 -355.13)"/><path class="cls-15" d="M697.06,539.89S685,561.57,638,580.86c-40.33,16.52-84.15,14.15-114.06,30.26s-53.3,31.23-53.3,31.23l11.9-51.23,35.07-33.07s71.7-13.36,72.94-13.36S685,535.44,685,535.44Z" transform="translate(-439.55 -355.13)"/><path class="cls-15" d="M697.06,539.89s24.17,13.49,30,49,19.29,56.06,32.36,39.31-51.72-98.73-51.72-98.73Z" transform="translate(-439.55 -355.13)"/><path class="cls-2" d="M762.92,627.06C744,663.43,734,539.64,697.06,539.89c0,0-59,41-109.82,44.8s-54.84,13.74-73.09,23.23-43.54,34.44-43.54,34.44-4.45.08-4.46,0c-1-3.76-20.05-96.84,46.89-104.5,68.33-7.8,207.51-8.37,207.51-8.37S781.86,590.67,762.92,627.06Z" transform="translate(-439.55 -355.13)"/><path class="cls-10" d="M697.06,539.89s-59,41-109.82,44.8-54.84,13.74-73.09,23.23-45.76,34.44-45.76,34.44h0c-1.55-13-7.84-56.06,21.11-77.62,29.73-22.15,59.45-2.76,97.66-.18S697.06,539.89,697.06,539.89Z" transform="translate(-439.55 -355.13)"/><path class="cls-5" d="M596.69,761.44s28.51,1.32,38,0V770l-38-5.3Z" transform="translate(-439.55 -355.13)"/><path class="cls-16" d="M692,798.22l-25.3,119.89-96.7-.21L542.48,798.84l12.24-3.41v0l8.47-2.36s19.73,28.82,55,27.48c30.14-1.13,30.1-.85,53.34-27.48l9.39,2.36v0Z" transform="translate(-439.55 -355.13)"/><path class="cls-17" d="M680.91,795.39v0c-5.74,9.79-24.59,34.83-63.65,35.16s-62.54-35.16-62.54-35.16v0l8.47-2.36s19.73,28.82,55,27.48c30.14-1.13,30.1-.85,53.34-27.48Z" transform="translate(-439.55 -355.13)"/><path class="cls-18" d="M549.84,830.59S649,848.05,685,830.7l-3.56,17.68s-126.6,2.67-128.41-4Z" transform="translate(-439.55 -355.13)"/><path class="cls-18" d="M557,861.79s83.77,12.6,121.72-.68l-3.67,17.4s-96,7.21-114.25-.35Z" transform="translate(-439.55 -355.13)"/><path class="cls-18" d="M565,896s55.29,4.25,106.6-.77l-2.65,12.55L568.2,910Z" transform="translate(-439.55 -355.13)"/><path class="cls-15" d="M753.65,659.73c-10.45,36.78-43.37,103.09-138.37,103.09-7.78,0-19.64-1.5-26.58-2.17C707,752.35,752.64,662.37,753.65,659.73Z" transform="translate(-439.55 -355.13)"/><path class="cls-19" d="M722.49,607.89c-16.46-.86-52.42-1.56-68.36-.16s-19.22,2.47-21.71,4.3-3.56,4.64-8.07,5.29c-4.11.59-12.35,1.32-14,1.44-1.63-.13-9.94-.85-14-1.44-4.5-.65-5.61-3.44-8.12-5.29s-5.72-2.87-21.65-4.3-51.89-.7-68.37.16a103.38,103.38,0,0,0-28.34,5.34l.91,19.54a36.83,36.83,0,0,0,5.32,1.63c3.25.78,10.38,25.91,15.45,38.69s12.64,17.69,24.43,21.17c23.65,4.28,46.5-1.26,53.37-3.79S581,681,585.67,673.11s13.13-28.39,15.83-33.59c2-3.84,6.58-5.23,8.86-5.69,2.27.46,6.88,1.85,8.85,5.69,2.7,5.19,11.21,25.72,15.84,33.59s9.43,14.81,16.29,17.35,29.71,8.07,53.39,3.79c11.81-3.48,19.34-8.37,24.44-21.17s12.18-37.91,15.46-38.69,10.43-.52,10.43-.52l-4.21-20.65a103.73,103.73,0,0,0-28.37-5.34M588.24,653.21c-4.91,15.16-9.79,26.49-19.16,31s-44.82,12.34-61.18.61c-3.22-2.36-12.63-11.81-14.33-30.3s-3.65-28.26,7.8-33.49c0,0,22.77-7.48,41-7.42,20.52.09,38.69,3.21,42.79,8.52s8.9,11.84,3.1,31m138.89,1.35c-1.7,18.49-11.07,27.94-14.32,30.3-16.34,11.73-51.83,3.92-61.2-.61s-14.24-15.88-19.15-31c-5.77-19.2-.94-25.75,3.12-31s22.24-8.43,42.83-8.52c18.16-.06,40.9,7.42,40.9,7.42,11.47,5.23,9.53,15,7.83,33.49" transform="translate(-439.55 -355.13)"/><path class="cls-20" d="M499.9,651.07s1-1,2.84-2.73a83.28,83.28,0,0,1,8.21-6.46c1.79-1.23,3.77-2.52,6-3.76A73.59,73.59,0,0,1,532,631.6l2.13-.57,1.07-.29,1.09-.23,2.19-.46c.74-.12,1.48-.22,2.22-.34,1.48-.27,3-.33,4.48-.48.74-.08,1.5,0,2.25-.08s1.5-.06,2.24,0a46.43,46.43,0,0,1,8.69,1,33.93,33.93,0,0,1,4,1.07,31.4,31.4,0,0,1,3.73,1.37l1.75.76.85.37.81.42,3,1.68c.94.59,1.81,1.19,2.65,1.75l1.21.82c.38.28.74.58,1.08.86a44.12,44.12,0,0,1,3.49,3c1.81,1.77,2.79,2.81,2.79,2.81l-.24.26s-1.26-.74-3.37-2.1l-.83-.54-1-.53-2.11-1.21-1.16-.67-1.28-.64-2.72-1.37c-2-.83-4-1.78-6.34-2.54-1.12-.44-2.33-.74-3.54-1.1s-2.47-.65-3.75-.93a61,61,0,0,0-8-1.24c-.69-.06-1.39-.06-2.09-.1s-1.4-.08-2.11,0c-1.41.06-2.83,0-4.24.23-.71.07-1.41.14-2.12.22l-2.1.34-1.05.17-1,.23-2.06.45a69,69,0,0,0-7.86,2.51c-1.26.45-2.46,1-3.65,1.51s-2.32,1.07-3.42,1.63c-2.2,1.09-4.22,2.25-6.06,3.35s-3.48,2.2-4.9,3.21-2.63,1.92-3.62,2.69c-2,1.54-3,2.51-3,2.51Z" transform="translate(-439.55 -355.13)"/><path class="cls-20" d="M638.52,645.26s1.06-.92,3-2.35c1-.71,2.22-1.56,3.67-2.46s3.12-1.89,5-2.88,3.95-2,6.19-3a67.46,67.46,0,0,1,7.26-2.59c1.28-.41,2.62-.7,4-1,.67-.17,1.37-.28,2.05-.42s1.38-.29,2.09-.37l2.12-.31c.71-.11,1.43-.14,2.15-.21,1.44-.16,2.89-.17,4.35-.21.73,0,1.45,0,2.18,0s1.46,0,2.19.09l2.17.22,1.08.11c.36,0,.71.11,1.07.17a39,39,0,0,1,4.2.83l2,.53c.66.21,1.31.44,2,.66l1.92.69c.61.27,1.21.55,1.81.83l1.76.82c.56.31,1.1.63,1.64.94a50.47,50.47,0,0,1,5.78,3.84c.83.68,1.6,1.34,2.33,2,.37.32.74.61,1.07.93s.64.63.94.94a41.36,41.36,0,0,1,3,3.23c1.55,1.88,2.38,3,2.38,3l-.27.23s-1.14-.83-3-2.34c-.47-.38-1-.8-1.59-1.21l-1.91-1.37c-1.31-1-3-2-4.65-3.11-.87-.53-1.81-1-2.77-1.58a33.39,33.39,0,0,0-3-1.57l-1.58-.78-1.67-.7c-.56-.23-1.13-.47-1.7-.73l-1.77-.63c-.6-.21-1.19-.45-1.8-.65l-1.87-.56c-1.24-.42-2.54-.69-3.84-1-.33-.07-.65-.16-1-.22l-1-.16-2-.32c-.67-.08-1.36-.13-2-.19s-1.37-.14-2.05-.14c-1.37,0-2.75-.08-4.12,0-.69,0-1.37,0-2.06.11l-2,.2c-.68,0-1.35.17-2,.27s-1.34.18-2,.32c-1.31.27-2.62.49-3.87.84a74.89,74.89,0,0,0-7.19,2.17c-2.24.82-4.35,1.66-6.24,2.54s-3.61,1.73-5.09,2.55-2.76,1.57-3.8,2.2c-2.07,1.28-3.18,2.11-3.18,2.11Z" transform="translate(-439.55 -355.13)"/><path class="cls-21" d="M503.28,648.3a16.47,16.47,0,0,1-1.81.41,18.35,18.35,0,0,1-1.91.24,13.9,13.9,0,0,1-2.28,0l-1.23-.1a3.71,3.71,0,0,1-1.24-.3,3.35,3.35,0,0,1-1-.73,3.57,3.57,0,0,1-.69-1,2.61,2.61,0,0,1-.23-1A1.78,1.78,0,0,1,493,645a2.18,2.18,0,0,1,.25-.46l.11-.14.37,0,.16.09.39.22a2.46,2.46,0,0,0,.52.21,3,3,0,0,0,.56.13l.28,0,.28.06a2.26,2.26,0,0,1,.62.2,6.26,6.26,0,0,1,.65.46,4.55,4.55,0,0,0,.81.47c.59.26,1.23.47,1.84.69s1.2.39,1.72.53l1.75.5Z" transform="translate(-439.55 -355.13)"/><path class="cls-21" d="M510.13,643a17.21,17.21,0,0,1-1.81.41,18.83,18.83,0,0,1-1.92.24,13.69,13.69,0,0,1-2.28,0l-1.23-.1a3.71,3.71,0,0,1-1.24-.3,3.34,3.34,0,0,1-1-.73,3.52,3.52,0,0,1-.69-1,2.52,2.52,0,0,1-.23-1,1.72,1.72,0,0,1,.13-.79,2.2,2.2,0,0,1,.24-.46l.11-.14.36,0,.16.09.39.22a2.23,2.23,0,0,0,.52.21,3,3,0,0,0,.56.13l.28,0,.28.06a2.11,2.11,0,0,1,.62.21,5.22,5.22,0,0,1,.65.46,4.83,4.83,0,0,0,.8.47c.59.26,1.22.47,1.84.68s1.2.39,1.72.54l1.75.5Z" transform="translate(-439.55 -355.13)"/><path class="cls-21" d="M517,639a16.65,16.65,0,0,1-1.81.41,17.77,17.77,0,0,1-1.91.24,13.69,13.69,0,0,1-2.28,0l-1.23-.1a3.7,3.7,0,0,1-1.24-.3,3.38,3.38,0,0,1-1-.73,3.46,3.46,0,0,1-.69-1,2.54,2.54,0,0,1-.23-1,1.81,1.81,0,0,1,.13-.79,2.33,2.33,0,0,1,.25-.45l.11-.14.36,0,.16.09.39.22a2.26,2.26,0,0,0,.52.21,3.11,3.11,0,0,0,.56.12l.29,0,.27.06a2.16,2.16,0,0,1,.62.2,5.9,5.9,0,0,1,.65.46,4.41,4.41,0,0,0,.81.47c.59.26,1.22.47,1.83.69s1.2.39,1.72.53l1.75.5Z" transform="translate(-439.55 -355.13)"/><path class="cls-21" d="M505.26,646.85l-.49.13c-.31.08-.76.19-1.32.29a10.06,10.06,0,0,1-2,.16,6.87,6.87,0,0,1-1.22-.13,5.71,5.71,0,0,1-1.32-.48l-.34-.17-.08,0,0,0h0l-.13-.13h0l-.11-.07-.22-.15a1,1,0,0,1-.25-.2,6.1,6.1,0,0,1-.6-.72,4.66,4.66,0,0,1-.32-.61,3,3,0,0,1-.19-1.15,3.81,3.81,0,0,1,.16-1,4.26,4.26,0,0,1,.32-.77,4.26,4.26,0,0,1,.83-1.06h.36a4,4,0,0,1,.49.44,6.23,6.23,0,0,1,.44.49c.15.19.32.39.46.6a7,7,0,0,1,.41.65,2.63,2.63,0,0,1,.3.61.85.85,0,0,1,0,.29s0,.07-.09.14,0,.13.06.2l.12.23.06.12h0l-.13-.12h0v0l0,0,.1.12a2.36,2.36,0,0,0,.54.47c.25.12.47.3.76.4a7.66,7.66,0,0,0,.82.33c.27.11.54.18.79.26,1,.3,1.74.49,1.74.49Z" transform="translate(-439.55 -355.13)"/><path class="cls-21" d="M501.83,649.9l-.43.26a13.25,13.25,0,0,1-1.18.63,9.55,9.55,0,0,1-1.86.69,6.88,6.88,0,0,1-1.2.21,5.85,5.85,0,0,1-1.41-.11l-.38-.08-.09,0h-.05l-.17-.08h0l-.13,0-.26-.08a.93.93,0,0,1-.3-.12,6,6,0,0,1-.78-.53,4.35,4.35,0,0,1-.49-.5,3,3,0,0,1-.52-1.05,4,4,0,0,1-.13-1,4.22,4.22,0,0,1,.08-.83,3.82,3.82,0,0,1,.2-.65A3.46,3.46,0,0,1,493,646l.34-.11a4.46,4.46,0,0,1,.61.29c.17.1.37.21.57.35s.41.29.62.46a7.26,7.26,0,0,1,.58.51,2.71,2.71,0,0,1,.47.5,1,1,0,0,1,.13.27s0,.08,0,.16.07.11.12.17l.19.19.09.09h0l-.15-.08h0l0,0,.13.09a2.5,2.5,0,0,0,.65.31c.27,0,.54.16.84.18a7.61,7.61,0,0,0,.88.09c.29,0,.57,0,.84,0,1.05,0,1.81,0,1.81,0Z" transform="translate(-439.55 -355.13)"/><path class="cls-21" d="M506.38,645.56l-.51.06c-.32,0-.79.07-1.35.08a9.78,9.78,0,0,1-2-.14,6.46,6.46,0,0,1-1.18-.31,5.38,5.38,0,0,1-1.22-.67l-.31-.22-.08-.06,0,0h0l-.11-.14h0l-.1-.09-.2-.18a.93.93,0,0,1-.22-.23,6.05,6.05,0,0,1-.47-.8,3.77,3.77,0,0,1-.21-.65,2.87,2.87,0,0,1,0-1.17,3.75,3.75,0,0,1,.32-.93,4.49,4.49,0,0,1,.45-.72,4.37,4.37,0,0,1,.47-.51,4.08,4.08,0,0,1,.52-.41l.37,0a4.74,4.74,0,0,1,.41.51c.11.16.24.34.36.55s.24.43.35.66.22.46.3.7a2.84,2.84,0,0,1,.19.65.85.85,0,0,1,0,.29s-.06.07-.12.13,0,.13,0,.2l.08.25,0,.12v0h0c.09.13-.13-.17-.11-.14h0v0l0,0,.07.13a2.43,2.43,0,0,0,.45.55c.23.15.42.36.68.51a7.86,7.86,0,0,0,.75.45c.25.14.5.27.74.38.95.45,1.63.75,1.63.75Z" transform="translate(-439.55 -355.13)"/><path class="cls-21" d="M510.79,642.7l-.5.06c-.32,0-.78.07-1.35.08a10,10,0,0,1-2-.15,6.38,6.38,0,0,1-1.18-.31,5.49,5.49,0,0,1-1.23-.67l-.3-.22-.08-.06,0,0h0l-.11-.14h0l-.1-.09-.2-.18a.92.92,0,0,1-.22-.23,5.79,5.79,0,0,1-.47-.8,4,4,0,0,1-.21-.65,2.84,2.84,0,0,1,0-1.17,3.56,3.56,0,0,1,.32-.93,4.1,4.1,0,0,1,.45-.72A3.72,3.72,0,0,1,504,636a3.77,3.77,0,0,1,.53-.41l.36,0a4.12,4.12,0,0,1,.41.51c.11.16.24.34.36.55s.24.43.35.67a7,7,0,0,1,.29.7,2.81,2.81,0,0,1,.2.64,1,1,0,0,1,0,.29,1.65,1.65,0,0,1-.11.13c-.05,0,0,.13,0,.2l.09.25,0,.13v0h0l-.1-.14h0l0,0,.07.13a2.31,2.31,0,0,0,.45.55c.23.15.42.36.68.51a7.66,7.66,0,0,0,.76.45c.25.14.5.27.74.38.95.45,1.63.75,1.63.75Z" transform="translate(-439.55 -355.13)"/><path class="cls-21" d="M512.62,641.74l-.5.06c-.32,0-.78.07-1.35.08a9.72,9.72,0,0,1-2-.14,6.92,6.92,0,0,1-1.18-.31,5.55,5.55,0,0,1-1.22-.67l-.3-.22-.08-.06,0,0h0l-.11-.15h0l-.1-.09-.19-.18a.85.85,0,0,1-.22-.23,6.33,6.33,0,0,1-.47-.8,3.76,3.76,0,0,1-.21-.65,2.85,2.85,0,0,1,0-1.17,4,4,0,0,1,.32-.93,4.29,4.29,0,0,1,.45-.72,4,4,0,0,1,.47-.51,3.77,3.77,0,0,1,.53-.41l.36,0a4.38,4.38,0,0,1,.41.51,6.5,6.5,0,0,1,.36.55c.11.21.24.43.36.67a7.21,7.21,0,0,1,.29.7,2.66,2.66,0,0,1,.2.65.92.92,0,0,1,0,.29l-.11.13c-.05,0,0,.13,0,.21l.08.25,0,.12h0l-.11-.14h0v0l0,0,.08.13a2.33,2.33,0,0,0,.45.55c.23.15.42.37.68.51a8.07,8.07,0,0,0,.76.45c.25.14.5.26.74.37.94.45,1.63.75,1.63.75Z" transform="translate(-439.55 -355.13)"/><path class="cls-21" d="M716,645.51l1.74-.5c.52-.15,1.11-.33,1.72-.54s1.25-.43,1.83-.68a4.67,4.67,0,0,0,.81-.47,5.78,5.78,0,0,1,.65-.46,2.23,2.23,0,0,1,.62-.21l.27-.06.29,0a3.1,3.1,0,0,0,.56-.13,2.3,2.3,0,0,0,.52-.21l.38-.22.16-.09.36,0,.11.14a2.26,2.26,0,0,1,.25.46,1.77,1.77,0,0,1,.13.79,2.53,2.53,0,0,1-.23,1,3.53,3.53,0,0,1-.68,1,3.37,3.37,0,0,1-1,.73,3.69,3.69,0,0,1-1.24.3l-1.23.1a13.59,13.59,0,0,1-2.27,0,18.34,18.34,0,0,1-1.91-.24,17.25,17.25,0,0,1-1.81-.41Z" transform="translate(-439.55 -355.13)"/><path class="cls-21" d="M709.13,640.21l1.74-.5c.51-.15,1.11-.33,1.72-.53s1.25-.43,1.84-.69a4.34,4.34,0,0,0,.8-.47,6.26,6.26,0,0,1,.66-.46,2.18,2.18,0,0,1,.62-.2l.28-.06.28,0a2.74,2.74,0,0,0,.55-.13,2.22,2.22,0,0,0,.53-.21l.39-.22.16-.09.36,0,.11.14a2.08,2.08,0,0,1,.24.45,1.71,1.71,0,0,1,.13.79,2.49,2.49,0,0,1-.23,1,3.48,3.48,0,0,1-.68,1,3.35,3.35,0,0,1-1,.73,3.71,3.71,0,0,1-1.24.3l-1.23.1a14,14,0,0,1-2.28,0,18.47,18.47,0,0,1-1.91-.24,16.92,16.92,0,0,1-1.81-.41Z" transform="translate(-439.55 -355.13)"/><path class="cls-21" d="M702.23,636.2l1.74-.5c.51-.14,1.11-.33,1.72-.53s1.25-.43,1.83-.69a4.73,4.73,0,0,0,.81-.47,5.73,5.73,0,0,1,.65-.46,2.18,2.18,0,0,1,.62-.21l.28-.06.29,0a2.87,2.87,0,0,0,.56-.13,2.26,2.26,0,0,0,.52-.21l.39-.22.16-.1.36,0,.11.14a2.3,2.3,0,0,1,.25.46,1.78,1.78,0,0,1,.13.79,2.58,2.58,0,0,1-.23,1,3.61,3.61,0,0,1-.69,1,3.25,3.25,0,0,1-1,.73,3.67,3.67,0,0,1-1.24.3l-1.23.1a13.68,13.68,0,0,1-2.27,0A18.52,18.52,0,0,1,704,637a17.21,17.21,0,0,1-1.81-.41Z" transform="translate(-439.55 -355.13)"/><path class="cls-21" d="M714,644.06s.73-.19,1.74-.49c.25-.07.52-.15.79-.26a7.88,7.88,0,0,0,.82-.32c.28-.11.5-.29.76-.4a2.32,2.32,0,0,0,.53-.47l.09-.12,0,0h0l-.13.12h0l.06-.12.13-.23c0-.07.11-.18.06-.19s-.08-.12-.09-.15a1,1,0,0,1,0-.29,2.7,2.7,0,0,1,.3-.61,7.48,7.48,0,0,1,.41-.65c.15-.21.32-.41.46-.6s.31-.35.45-.49a4.47,4.47,0,0,1,.49-.44l.37,0a3.67,3.67,0,0,1,.45.49,3.61,3.61,0,0,1,.38.57,4.55,4.55,0,0,1,.33.77,4,4,0,0,1,.16,1,2.89,2.89,0,0,1-.19,1.15,3.91,3.91,0,0,1-.32.61,6,6,0,0,1-.6.72,1,1,0,0,1-.25.2l-.23.14L721,644h0l-.13.13h0l0,0-.09,0-.34.17a5.82,5.82,0,0,1-1.32.48,7,7,0,0,1-1.22.12,9.6,9.6,0,0,1-2-.16c-.56-.09-1-.2-1.32-.28l-.48-.13Z" transform="translate(-439.55 -355.13)"/><path class="cls-21" d="M717.53,647.13h1.81c.27,0,.55,0,.84,0a8.7,8.7,0,0,0,.88-.09c.3,0,.56-.14.84-.18a2.7,2.7,0,0,0,.66-.31l.13-.09,0,0h0l-.15.08h0l.09-.09.19-.19c.05-.06.16-.14.12-.17s0-.13,0-.16a1.09,1.09,0,0,1,.13-.26,3,3,0,0,1,.47-.5,7.25,7.25,0,0,1,.58-.51c.2-.17.42-.31.62-.46s.4-.26.57-.35a4.41,4.41,0,0,1,.6-.29l.35.11a3.58,3.58,0,0,1,.28.59,3.68,3.68,0,0,1,.19.65,4.1,4.1,0,0,1,.09.83,3.88,3.88,0,0,1-.13,1,3,3,0,0,1-.52,1.06,3.81,3.81,0,0,1-.48.5,5.83,5.83,0,0,1-.78.53.94.94,0,0,1-.3.12l-.26.08-.13,0h0L724,649H724l-.1,0-.38.08a5.74,5.74,0,0,1-1.41.11,6.84,6.84,0,0,1-1.2-.2,9.59,9.59,0,0,1-1.86-.69,12.84,12.84,0,0,1-1.18-.63l-.43-.26Z" transform="translate(-439.55 -355.13)"/><path class="cls-21" d="M712.83,642.77s.69-.3,1.63-.75c.24-.11.49-.23.74-.37s.51-.28.75-.45.45-.36.68-.51a2.41,2.41,0,0,0,.45-.55l.07-.13,0,0v0h0l-.11.14h0v0l0-.12.09-.25c0-.07.08-.19,0-.2l-.11-.13a1,1,0,0,1,0-.29,2.89,2.89,0,0,1,.2-.65,7.56,7.56,0,0,1,.3-.7c.11-.23.24-.46.35-.66s.25-.39.36-.55a4.25,4.25,0,0,1,.42-.51l.36,0a3.68,3.68,0,0,1,.53.41,4.4,4.4,0,0,1,.47.51,4.54,4.54,0,0,1,.45.72,3.76,3.76,0,0,1,.32.93,2.89,2.89,0,0,1,0,1.17,4,4,0,0,1-.21.65,6.16,6.16,0,0,1-.47.8.92.92,0,0,1-.22.24l-.2.18-.1.09h0l-.11.14h0l0,0-.08.06-.31.22a5.69,5.69,0,0,1-1.22.67,7.06,7.06,0,0,1-1.18.31,9.81,9.81,0,0,1-2,.14c-.56,0-1,0-1.35-.08l-.51-.06Z" transform="translate(-439.55 -355.13)"/><path class="cls-21" d="M708.41,639.92s.68-.3,1.63-.75c.23-.11.48-.23.74-.37a8.6,8.6,0,0,0,.75-.45,8.48,8.48,0,0,0,.68-.51,2.31,2.31,0,0,0,.45-.55l.08-.13,0,0v0h0l-.11.14h0l0-.13.08-.25c0-.07.08-.19,0-.2a1.47,1.47,0,0,1-.11-.13.83.83,0,0,1,0-.29,2.6,2.6,0,0,1,.19-.65,7.33,7.33,0,0,1,.29-.7c.11-.23.24-.45.36-.66s.24-.39.36-.55a4.13,4.13,0,0,1,.42-.51l.36,0a3.65,3.65,0,0,1,.53.41,3.88,3.88,0,0,1,.47.51,4.14,4.14,0,0,1,.45.71,3.82,3.82,0,0,1,.32.93,2.92,2.92,0,0,1,0,1.17,4.51,4.51,0,0,1-.21.65,6.23,6.23,0,0,1-.48.8.9.9,0,0,1-.22.23l-.2.18-.1.09h0l-.11.14h0l0,0-.08.06-.3.22a5.57,5.57,0,0,1-1.22.67,6.6,6.6,0,0,1-1.18.31,10,10,0,0,1-2,.14c-.57,0-1,0-1.35-.08l-.51-.06Z" transform="translate(-439.55 -355.13)"/><path class="cls-21" d="M706.58,639s.68-.3,1.63-.75c.23-.11.49-.23.74-.38a7.66,7.66,0,0,0,.76-.45c.26-.15.45-.36.68-.51a2.3,2.3,0,0,0,.45-.55l.08-.13,0,0v0h0l-.11.14h0v0l0-.12.08-.25c0-.07.09-.19,0-.2s-.1-.11-.11-.13a.91.91,0,0,1,0-.29,2.54,2.54,0,0,1,.2-.65,7.12,7.12,0,0,1,.29-.7c.11-.23.24-.46.35-.66s.24-.39.36-.55a4,4,0,0,1,.42-.51l.36,0a3.91,3.91,0,0,1,.52.41,3.69,3.69,0,0,1,.47.51,4.1,4.1,0,0,1,.45.72,3.83,3.83,0,0,1,.32.93,2.85,2.85,0,0,1,0,1.17,3.41,3.41,0,0,1-.21.65,5.49,5.49,0,0,1-.47.8.92.92,0,0,1-.22.23l-.2.18-.1.09h0l-.11.14h0l0,0-.08.06-.3.22a5.58,5.58,0,0,1-1.22.67,6.82,6.82,0,0,1-1.18.31,9.91,9.91,0,0,1-2,.14c-.57,0-1,0-1.35-.08l-.51-.06Z" transform="translate(-439.55 -355.13)"/><path class="cls-22" d="M587.57,700.33s.75.24,2.09.63l2.41.66c.93.25,2,.48,3.13.74s2.39.5,3.7.7,2.68.4,4.09.53,2.85.18,4.27.16a23.58,23.58,0,0,0,4.15-.36,10,10,0,0,0,1.88-.5,11.79,11.79,0,0,0,1.66-.74c.25-.14.47-.31.71-.45a4.69,4.69,0,0,0,.66-.45,6.4,6.4,0,0,1,.63-.42c.19-.16.37-.31.56-.45.42-.23.73-.58,1.14-.82a5.8,5.8,0,0,0,.55-.44c.18-.15.38-.28.58-.42.34-.34.72-.66,1.08-1s.67-.72,1-1.06a4.53,4.53,0,0,0,.49-.55l.48-.55.49-.53c.15-.18.28-.37.43-.54.53-.72,1.15-1.34,1.56-1.92s.82-1,1.11-1.33.45-.48.45-.48l.94.11s.1.2.26.59a17.81,17.81,0,0,1,.59,1.71,12.58,12.58,0,0,1,.43,2.75,8.52,8.52,0,0,1,0,1.73,12.56,12.56,0,0,1-.26,1.95c-.16.68-.37,1.38-.61,2.12s-.66,1.47-1.08,2.21a17.76,17.76,0,0,1-1.63,2.17,12.47,12.47,0,0,1-2.21,1.89,14.8,14.8,0,0,1-5.6,2.22,31.66,31.66,0,0,1-5.79.4,31.09,31.09,0,0,1-5.35-.56,34.59,34.59,0,0,1-4.82-1.26c-1.5-.52-2.93-1-4.22-1.63S595,706,594,705.41a56,56,0,0,1-5-3c-1.16-.78-1.81-1.28-1.81-1.28Z" transform="translate(-439.55 -355.13)"/><path class="cls-3" d="M553,844.42S550.18,866,530,872c-9.65,2.85-17-5.56-22.28-16.67-5.76-12.09-9.07-27.38-10.22-34.83-2.23-14.27-21.38-142.61,10.43-135.61,20.22,4.46,15,72.12,13.35,119.83-.38,11-.57,21-.19,28.88,0,.4,0,.79.06,1.17.61,10.93,2.37,17.5,6.34,16.7,18.93-3.73,15-52.6,15-52.6Z" transform="translate(-439.55 -355.13)"/><path class="cls-10" d="M521.07,833.55c0,.4,0,.79.06,1.17C521,835.13,521,834.78,521.07,833.55Z" transform="translate(-439.55 -355.13)"/><path class="cls-23" d="M521.26,804.68c-1-40.35-5.92-105.43-16.68-105.76-14.35-.43,3.12,156.37,3.12,156.37-5.76-12.09-9.07-27.38-10.22-34.83-2.23-14.27-21.38-142.61,10.43-135.61C528.13,689.31,522.88,757,521.26,804.68Z" transform="translate(-439.55 -355.13)"/><path class="cls-3" d="M692,798.23s35.9,42.05-20.47,97.71" transform="translate(-439.55 -355.13)"/></svg>