<svg id="OBJECTS" xmlns="http://www.w3.org/2000/svg" xmlns:xlink="http://www.w3.org/1999/xlink" viewBox="0 0 222.17 498.07"><defs><style>.cls-1{fill:#404041;}.cls-1,.cls-10,.cls-11,.cls-12,.cls-15,.cls-16,.cls-17,.cls-18,.cls-19,.cls-2,.cls-20,.cls-21,.cls-22,.cls-23,.cls-24,.cls-25,.cls-3,.cls-4,.cls-5,.cls-6,.cls-7,.cls-8,.cls-9{fill-rule:evenodd;}.cls-2{fill:#594a42;}.cls-3{fill:#dcb490;}.cls-4{fill:#a15641;}.cls-5{fill:#806a50;}.cls-6{fill:#414042;}.cls-7{fill:#38464d;}.cls-8{fill:#603913;}.cls-9{fill:#43525a;}.cls-10{fill:#d8b392;}.cls-11{fill:#b79678;}.cls-12{fill:url(#radial-gradient);}.cls-13{fill:#514132;}.cls-14,.cls-24{fill:#fff;}.cls-15{fill:#cfaf8b;}.cls-16{fill:#8d4b38;}.cls-17{fill:#542f0f;}.cls-18{fill:#ef4136;}.cls-19{fill:#231f20;}.cls-20{fill:#a37275;}.cls-21{fill:url(#linear-gradient);}.cls-22{fill:#f15a29;}.cls-23,.cls-26{fill:#c49a6c;}.cls-25{fill:url(#linear-gradient-2);}</style><radialGradient id="radial-gradient" cx="375.36" cy="257.5" r="45.78" gradientTransform="translate(-144.84 -125.24) scale(1.45 1.53)" gradientUnits="userSpaceOnUse"><stop offset="0" stop-color="#f5e0cd"/><stop offset="0.43" stop-color="#f4decb"/><stop offset="0.63" stop-color="#f1d9c3"/><stop offset="0.79" stop-color="#edd0b6"/><stop offset="0.93" stop-color="#e6c3a4"/><stop offset="1" stop-color="#e1b996"/></radialGradient><linearGradient id="linear-gradient" x1="498.91" y1="545.06" x2="487.08" y2="503" gradientUnits="userSpaceOnUse"><stop offset="0" stop-color="#f5e0cd"/><stop offset="1" stop-color="#e1b996"/></linearGradient><linearGradient id="linear-gradient-2" x1="299.43" y1="396.33" x2="339.73" y2="396.33" xlink:href="#linear-gradient"/></defs><title>title1</title><path class="cls-1" d="M350.49,232.39c.63,3.66-58.15,43.27-64.94,53.06C273.68,302.55,290.49,306,317.2,306s59.34-10.12,64-14.66,27.69-40.84,24.07-41.89S350.47,232.59,350.49,232.39Z" transform="translate(-281.68 -164.17)"/><path class="cls-2" d="M352.8,233.27c.64,3.66-58.15,43.27-64.94,53.06-11.87,17.1,4.94,20.59,31.65,20.59s59.34-10.12,64-14.66,27.69-40.84,24.07-41.89S352.78,233.46,352.8,233.27Z" transform="translate(-281.68 -164.17)"/><polygon class="cls-3" points="158.08 350.19 176.64 484.61 157.24 484.61 137.41 353.76 158.08 350.19"/><path class="cls-1" d="M434,654.31c-1.28-4.17-7.91-23.39-5.77-26.53s8.87-2.89,10.05-3c14-.95,24-2.1,28.52,3,1.62,1.82.49,18.67,1.32,20.24s.33,3.32-.49,3S434,654.31,434,654.31Z" transform="translate(-281.68 -164.17)"/><polygon class="cls-3" points="83.09 350.26 64.53 484.68 83.94 484.68 103.76 353.83 83.09 350.26"/><path class="cls-1" d="M370.55,654.38c1.28-4.17,7.91-23.39,5.77-26.53s-8.87-2.89-10.05-3c-14-.95-24-2.1-28.52,3-1.62,1.82-.49,18.67-1.32,20.24s-.33,3.32.49,3S370.55,654.38,370.55,654.38Z" transform="translate(-281.68 -164.17)"/><path class="cls-4" d="M336.65,443.91c-2.31,4.89-1,33.16-5.6,46.42s-4.94,22,.66,25.48,35.27,5.93,52.42-1,28.68-33.86,26-49.22S391,416,381.82,410.4s-22.43-9.94-26.7-.7S336.65,443.91,336.65,443.91Z" transform="translate(-281.68 -164.17)"/><path class="cls-5" d="M375.22,396.44c-5.16-4-13-3.87-24.29,7.48S326.76,449.49,327.09,460s4.29,15.71,6.26,9.42,4.62-20.94,9.23-27.23,10.88-29.32,21.1-30.72S375.22,396.44,375.22,396.44Z" transform="translate(-281.68 -164.17)"/><path class="cls-6" d="M359.74,466.25c-7.43,21-17.31,133.1-18.39,161.71,0,0,30.27,1.67,30.27-2.61s27-72.32,30.65-87.81c3.61,15.49,34,89.36,34,93.64s27.33-5.67,27.33-5.67c-1.08-28.61-11.35-138.27-18.78-159.24l-42.53,2.48Z" transform="translate(-281.68 -164.17)"/><path class="cls-7" d="M401.09,350.13l-.28,0-.28,0c-8.45-.32-15.67-.79-22.36-1.13-.32,0-2.27-1.52-2.58-1.5-13.68.71-26.14,3.82-33.24,12.06,4.16,29.56,21.79,75.31,4.55,133.65-.31,1,58.4,26.91,72.2,24.73,15.54-2.46,38.39-23.75,38.3-25-4-61-2.38-106.21,1.77-135.77-7-8.29-22.8-10.25-36.39-9.64-.23,0-2.61.94-2.84.95C411.5,348.83,407.17,349.9,401.09,350.13Z" transform="translate(-281.68 -164.17)"/><path class="cls-7" d="M365.28,348.64c-2-1-18.75,7.22-18.75,7.22a39.85,39.85,0,0,0-8.52,8.86c-4.29,5.93-30,39.74-39.24,57.72s21.53,33.31,30.43,24.2c6.55-6.71,43.87-57.36,43.26-58C371.07,387.17,365.28,348.64,365.28,348.64Z" transform="translate(-281.68 -164.17)"/><path class="cls-8" d="M360.06,344.78C352.5,370.72,347,410.53,354,453c1.45-11.34,21.26-109.41,18.28-110.27C368.63,341.64,360.06,344.78,360.06,344.78Z" transform="translate(-281.68 -164.17)"/><path class="cls-9" d="M402.77,379S363,365.55,356.86,355.59C346.75,339.24,379.41,332,388.46,330c6.75-1.47,30.22-3.69,34.77.28s17.33,2.8,20.44,11.17-7.25,22-14.51,26.88S403.66,379,402.77,379c1.65-1.4,14.26-18.43,16.36-24.28s3.3-6.18,3.3-6.18-36.45-1.32-40.25-.22a54.36,54.36,0,0,1-7.57,1.64c.35-.08,4,1.87,8,5.49C389.9,362.26,402.77,379,402.77,379Z" transform="translate(-281.68 -164.17)"/><path class="cls-3" d="M388.32,322.57c.65,8.22.39,27.06-12.74,24.92-1.45,9.19,16.26,12.34,23.71,12.24,7.46.1,25.15-3.11,23.71-12.29-13.13,2.14-13.38-16.65-12.73-24.87l-11,1Z" transform="translate(-281.68 -164.17)"/><path class="cls-10" d="M330.71,290.31c6.23,0,11.3-6.66,11.3-14.83s-5.08-14.83-11.3-14.83-11.3,6.66-11.3,14.83S324.49,290.31,330.71,290.31Z" transform="translate(-281.68 -164.17)"/><path class="cls-11" d="M330.41,285.75c2.85,0,5.18-4.31,5.18-9.6s-2.33-9.6-5.18-9.6-5.18,4.31-5.18,9.6S327.56,285.75,330.41,285.75Z" transform="translate(-281.68 -164.17)"/><path class="cls-10" d="M466.32,290.31c6.23,0,11.3-6.66,11.3-14.83s-5.08-14.83-11.3-14.83S455,267.3,455,275.47,460.09,290.31,466.32,290.31Z" transform="translate(-281.68 -164.17)"/><path class="cls-11" d="M467.84,284.71c2.85,0,5.18-4.31,5.18-9.6s-2.33-9.6-5.18-9.6-5.18,4.31-5.18,9.6S465,284.71,467.84,284.71Z" transform="translate(-281.68 -164.17)"/><path class="cls-12" d="M466.32,276c0,41.52-27.77,63-66.7,62.27-40.49-1-68.56-20.75-68.56-62.27s30.27-75.19,67.62-75.19S466.32,234.48,466.32,276Z" transform="translate(-281.68 -164.17)"/><ellipse class="cls-13" cx="149.39" cy="106.93" rx="5.94" ry="6.6"/><ellipse class="cls-14" cx="151.46" cy="104.92" rx="1.96" ry="2.2"/><ellipse class="cls-13" cx="84.63" cy="106.93" rx="5.94" ry="6.6"/><ellipse class="cls-14" cx="86.69" cy="104.92" rx="1.96" ry="2.2"/><path class="cls-15" d="M405.12,286.27c0,2.68-2.66,4.84-5.95,4.84s-5.93-2.16-5.93-4.84v-.06a33.38,33.38,0,0,0,5.33.41,32.08,32.08,0,0,0,6.53-.64Q405.12,286.13,405.12,286.27Z" transform="translate(-281.68 -164.17)"/><path class="cls-4" d="M333.72,297c-17-68.67-5-112.28,64.74-107.26,36.2-2.61,56.86,7.9,66,28.23,8.43,18.81,7,46-1.22,79,3.6-28.67-4.74-57.05-6.26-58.36-11.07-9.52-105.89-9.52-117,0C338.46,239.94,330.13,268.33,333.72,297Z" transform="translate(-281.68 -164.17)"/><path class="cls-16" d="M349.65,257.67c10.56-10.26,23.39-5.54,34,2.62.47.36.39.41.66,1C383,262.22,358.61,257.22,349.65,257.67Z" transform="translate(-281.68 -164.17)"/><path class="cls-16" d="M448.94,256c-11-9.79-23.58-4.51-33.89,4.11-.45.38-.38.42-.62,1.06C415.76,262,440,255.91,448.94,256Z" transform="translate(-281.68 -164.17)"/><path class="cls-17" d="M366.71,298.95c.67,14.66,46.57,15.85,58.39,8.9C402.37,320,366.64,312.27,366.71,298.95Z" transform="translate(-281.68 -164.17)"/><path class="cls-4" d="M351.11,227.31S361.83,243,377.48,248.6s22.42,5.93,21.26,5.76-12.69-9.77-12.69-9.77c10.65,6.54,26.85,11.62,36.26,8.9-1.81-.87-12-11.13-12-12.22,18.68,14.43,45.38,11.57,45,11.52-1.32-.17-16-11.87-16-11.87l25.22,7-11.37-20.42C444.54,225.94,347.4,210.3,351.11,227.31Z" transform="translate(-281.68 -164.17)"/><path class="cls-18" d="M463.89,218.52c-.8.14-16.91,5.28-39.06,10.2-27.08,6-62.06,12.43-75.15,18.14-23.79,10.39-29,11.44-28.73,9.86s-4-34.52.72-42.62c12.64-21.7,36.06-43.09,55.77-47.84,14.28-3.44,44.67-2.91,62.66,3.44,8,2.83,23.5,25.19,25,29.29S463.89,218.52,463.89,218.52Z" transform="translate(-281.68 -164.17)"/><path class="cls-4" d="M428.42,222.25c-.82-2.44-9.89-21.29-8.9-25.66s14.18-12,21.92-11.34,18.46,7.85,19,10.82,2.51,18.8,2.51,18.8Z" transform="translate(-281.68 -164.17)"/><path class="cls-19" d="M441.44,185.25c7.75.7,18.46,7.85,19,10.82s2.51,18.8,2.51,18.8l-1.41.3c-4.6-3.2.48-15.31-3.58-20.32C453.41,189.27,441.44,185.25,441.44,185.25Z" transform="translate(-281.68 -164.17)"/><path class="cls-20" d="M424.35,226.83l-2.08-10s25.71-4.45,33-5.85,12-.09,12.36,3.58-.82,6.63-5.93,7.24-36.51,7.77-36.92,6.89A5.94,5.94,0,0,1,424.35,226.83Z" transform="translate(-281.68 -164.17)"/><path class="cls-21" d="M480.63,490.51c-1.32,4.71-6.76,17.1-5.6,22.51s7.09,4.36,7.09,4.36a5.8,5.8,0,0,0,4.45,5.24c4.29,1,4.29.09,5.44.26s3.46,1,5.27-.17a10,10,0,0,1,3.21-1.48,6,6,0,0,0,3.3-3.05c.58-1.57-3.33-29.12-8.38-30.4S480.63,490.51,480.63,490.51Z" transform="translate(-281.68 -164.17)"/><path class="cls-7" d="M451.89,352c2.2-.28,14.26,13.23,14.26,13.23a42.08,42.08,0,0,1,5.19,11.39c2.14,7.12,29.68,109.46,27.95,114.56s-19.49,7.43-20.12,7.89c-1.9,1.39-17.59-39.73-27.67-74.64-7.58-26.24-21-37.23-20.21-37.62C433.06,386,451.89,352,451.89,352Z" transform="translate(-281.68 -164.17)"/><path class="cls-22" d="M439.72,614.49c11-2.56,23.77-2.24,24.43,2.12.86,5.67-3,19.06-2.31,22.52.33,1.57-4.47,2.83-8.74,3.49s-11.41,2.15-13.5-3.21C436.81,632.23,428.7,617,439.72,614.49Z" transform="translate(-281.68 -164.17)"/><path class="cls-22" d="M364.81,614.56c-11-2.56-23.77-2.24-24.43,2.12-.86,5.67,3,19.06,2.31,22.51-.33,1.57,4.47,2.83,8.74,3.49s11.41,2.15,13.5-3.21C367.73,632.3,375.84,617.12,364.81,614.56Z" transform="translate(-281.68 -164.17)"/><path class="cls-1" d="M457,635.26c-22.62.22-25.31,11.54-25.31,25.78,0,.38,0,.75,0,1.12h50.56c0-.37,0-.75,0-1.12C482.36,646.8,479.67,635,457,635.26Z" transform="translate(-281.68 -164.17)"/><path class="cls-23" d="M431.85,656.65c-.08,1.42-.11,2.89-.11,4.39,0,.38,0,.75,0,1.12h50.56c0-.37,0-.75,0-1.12,0-1.38,0-2.74-.09-4.06-14.64-2.36-17.22-4.42-38.55-1.27C440,656.25,435.07,656.53,431.85,656.65Z" transform="translate(-281.68 -164.17)"/><path class="cls-1" d="M347.48,635.34c22.62.22,25.31,11.54,25.31,25.78,0,.38,0,.75,0,1.12H322.2c0-.37,0-.75,0-1.12C322.18,646.88,324.86,635.11,347.48,635.34Z" transform="translate(-281.68 -164.17)"/><path class="cls-23" d="M372.68,656.72c.08,1.42.11,2.89.11,4.39,0,.38,0,.75,0,1.12H322.2c0-.37,0-.75,0-1.12,0-1.38,0-2.74.09-4.06,14.64-2.36,17.22-4.42,38.55-1.27C364.52,656.32,369.46,656.6,372.68,656.72Z" transform="translate(-281.68 -164.17)"/><path class="cls-4" d="M455.95,192.86c5.64,4.68,7.82,18.75,4.33,26.38,0,0-8.31-6.07-8.45-6.76s2.47,5.71-1.57,10.12c-1.75-3.25-5-7.09-8.49-8.43,3.65,5.46,1.86,7.8,1.34,10.54-7-9.12-16.67-13.29-16.67-14.77s-5-6.54,3-12.3c5.25-3.78,15.06-4.66,21.17-4.81l1.07,0C454.25,192.77,455.95,192.86,455.95,192.86Z" transform="translate(-281.68 -164.17)"/><path class="cls-24" d="M419.13,354.75c-5.37,3.65-14.87,5-19.83,5a46.89,46.89,0,0,1-15-2.57c7.46,7.51,18.47,21.86,18.47,21.86C404.42,377.63,417,360.6,419.13,354.75Z" transform="translate(-281.68 -164.17)"/><path class="cls-4" d="M451.57,196.63l6.35-1.78s.4-.22,4.28,5.36a47.63,47.63,0,0,1,5.52,11.69c-.33-1.13-9.64-8.12-9.64-8.12Z" transform="translate(-281.68 -164.17)"/><path class="cls-24" d="M420,398.34c-2.38.32-6.79,2.48-6.51,5.78l2.64,2.08,0-1.35,0-.61.44.4,2.26,2,.21-1.39.06-.41.33.23,1.83,1.26.38-1.21.07-.23.22,0,1.29.28-.1.53-1.06-.23-.41,1.31-.11.33-.28-.19-1.78-1.23-.22,1.45-.07.47-.35-.31-2.16-1.94,0,1.31,0,.56-.43-.34-2.6-2.06a4.94,4.94,0,0,0,.43,1c4.65,8.24,15.4,3.08,18.91-2.7,1.06,1.91,2.64,2.69,7.82,5a10.52,10.52,0,0,0-4.86-6.13c2.76-1.05,3.83-5.29,4-5.33s-5.31,1.88-7.12,5.26c-2-1.09-8.23-4.3-12.82-3.68Zm-2.25,1.07a2,2,0,1,1-1.93,2A2,2,0,0,1,417.73,399.41Z" transform="translate(-281.68 -164.17)"/><ellipse class="cls-14" cx="135.42" cy="237.19" rx="0.47" ry="0.49"/><path class="cls-24" d="M422.48,408.31a4.87,4.87,0,0,0,2.47,2,14.3,14.3,0,0,0,3.11.75l-2.18-2.86Z" transform="translate(-281.68 -164.17)"/><path class="cls-24" d="M420.59,398.83c.16-.37.55-1.05,2.22-2.31a8.42,8.42,0,0,1,3.79-1.46l-.42.78,2.76.17-.87,1.16,2.12.41-.45.65,1.93.85-1.32.75,1.32.37-.88.79Z" transform="translate(-281.68 -164.17)"/><path class="cls-25" d="M330.79,394.34s-3.3-22.34-12.53-31.76-14.83-1.74-12.53,2.79S316,387.1,316,387.1s-13.93,7.77-15.91,13.87.82,9.25.82,10.82-1.81,2.79,1,7.16,5.6,5.76,5.6,7,1.65,4.36,3.3,4.89a7.7,7.7,0,0,1,2.47,1.22s.16,1.92,4.94,2.44,8.74-1.75,14-7.33,7.09-7.51,7.42-10.47a9.18,9.18,0,0,0-3-7.16c-1.32-1-1.65-5.06-3.79-10.12Z" transform="translate(-281.68 -164.17)"/><path class="cls-26" d="M309.33,408.36l-.41-.63c.12-.09,12-8.92,15-14a3.28,3.28,0,0,0,.62-2c-.6-3.84-8.4-4.3-8.48-4.31l0-.77c.35,0,8.46.5,9.16,4.95a3.93,3.93,0,0,1-.72,2.5C321.46,399.35,309.82,408,309.33,408.36Z" transform="translate(-281.68 -164.17)"/><path class="cls-26" d="M316.92,416.3l-.51-.54c.11-.12.47-.38,1.35-1,3.07-2.25,11.23-8.24,11.74-11.08.61-3.39-.45-5.72-3.06-6.72a12.36,12.36,0,0,0-3.34-1l0-.77a11.76,11.76,0,0,1,3.61,1c3,1.14,4.2,3.83,3.53,7.59-.5,2.79-6.7,7.65-12,11.57C317.54,415.82,317,416.22,316.92,416.3Z" transform="translate(-281.68 -164.17)"/><path class="cls-26" d="M324,424.21l-.49-.57c2.48-2.38,9.06-9,9.71-10.93.81-2.39.78-3.91-1.59-5.57l-2.58-1.81.4-.64,2.58,1.81c2.73,1.92,2.74,3.9,1.87,6.47S324.4,423.85,324,424.21Z" transform="translate(-281.68 -164.17)"/><path class="cls-26" d="M339.28,419.32l-.66-.31c1.37-3.33.56-6.75-1-8.4a3,3,0,0,0-3.59-.92l-.27-.71a3.75,3.75,0,0,1,4.38,1.1A9,9,0,0,1,339.28,419.32Z" transform="translate(-281.68 -164.17)"/></svg>