<svg xmlns="http://www.w3.org/2000/svg" xmlns:xlink="http://www.w3.org/1999/xlink" viewBox="0 0 246.93 498.07"><defs><style>.cls-1{isolation:isolate;}.cls-10,.cls-11,.cls-12,.cls-13,.cls-14,.cls-15,.cls-16,.cls-17,.cls-18,.cls-19,.cls-2,.cls-20,.cls-21,.cls-22,.cls-25,.cls-26,.cls-27,.cls-28,.cls-29,.cls-3,.cls-30,.cls-31,.cls-33,.cls-34,.cls-35,.cls-36,.cls-37,.cls-38,.cls-4,.cls-5,.cls-6,.cls-7,.cls-8,.cls-9{fill-rule:evenodd;}.cls-2{fill:url(#Skintone_16);}.cls-3{fill:#ef5b72;}.cls-4{fill:url(#Skintone_16-2);}.cls-5{fill:#81542b;}.cls-6{fill:#8e595d;}.cls-7{fill:#834c50;}.cls-8{fill:url(#linear-gradient);}.cls-9{fill:#6e5351;}.cls-10{fill:#43525a;}.cls-11{fill:#f8a98e;}.cls-12{fill:url(#Skintone_16-3);}.cls-13{fill:#d8b392;}.cls-14{fill:#b79678;}.cls-15{fill:url(#linear-gradient-2);}.cls-16{fill:#4d2517;}.cls-17{fill:#a37275;}.cls-18{fill:#673c49;}.cls-19{fill:url(#radial-gradient);}.cls-20{fill:url(#linear-gradient-3);}.cls-21{fill:url(#radial-gradient-2);}.cls-22{fill:#53310f;}.cls-23{fill:#514132;}.cls-24{fill:#fff;}.cls-25{fill:#cfaf8b;}.cls-26{fill:#603813;}.cls-27{fill:#c72625;}.cls-28{fill:#e6e7e8;}.cls-29{fill:url(#Skintone_16-4);}.cls-30{fill:#404041;}.cls-31{fill:url(#Skintone_16-5);}.cls-32{mix-blend-mode:multiply;}.cls-33{fill:#dce4f4;}.cls-34{fill:url(#Skintone_16-6);}.cls-35{fill:url(#Skintone_16-7);}.cls-36{fill:#a15641;}.cls-37{fill:#7e576a;}.cls-38{fill:url(#linear-gradient-4);}</style><linearGradient id="Skintone_16" x1="511.2" y1="270.69" x2="479.86" y2="268.84" gradientUnits="userSpaceOnUse"><stop offset="0" stop-color="#967762"/><stop offset="1" stop-color="#4d3527"/></linearGradient><linearGradient id="Skintone_16-2" x1="297.32" y1="263.97" x2="328.42" y2="263.97" xlink:href="#Skintone_16"/><linearGradient id="linear-gradient" x1="101.58" y1="416.86" x2="126.75" y2="416.86" gradientUnits="userSpaceOnUse"><stop offset="0" stop-color="#f5e0cd"/><stop offset="1" stop-color="#e1b996"/></linearGradient><linearGradient id="Skintone_16-3" x1="333.21" y1="-7.61" x2="398.6" y2="230.36" xlink:href="#Skintone_16"/><linearGradient id="linear-gradient-2" x1="207.86" y1="415.89" x2="176.64" y2="418.99" xlink:href="#linear-gradient"/><radialGradient id="radial-gradient" cx="429.92" cy="352.45" r="14.44" gradientTransform="translate(-145.83 -199.04) scale(1.28 1.54)" xlink:href="#linear-gradient"/><linearGradient id="linear-gradient-3" x1="248.55" y1="362.39" x2="362.51" y2="362.39" xlink:href="#linear-gradient"/><radialGradient id="radial-gradient-2" cx="428.77" cy="300.32" r="49.06" gradientTransform="translate(-145.83 -199.04) scale(1.28 1.54)" gradientUnits="userSpaceOnUse"><stop offset="0" stop-color="#d8c7b7"/><stop offset="0.56" stop-color="#d9c6b5"/><stop offset="0.76" stop-color="#dac3ae"/><stop offset="0.91" stop-color="#debea3"/><stop offset="1" stop-color="#e1b996"/></radialGradient><linearGradient id="Skintone_16-4" x1="337.88" y1="-4.02" x2="401.45" y2="227.32" xlink:href="#Skintone_16"/><linearGradient id="Skintone_16-5" x1="352.33" y1="-4.74" x2="415.21" y2="224.11" xlink:href="#Skintone_16"/><linearGradient id="Skintone_16-6" x1="279.01" y1="4.96" x2="345.66" y2="247.52" xlink:href="#Skintone_16"/><linearGradient id="Skintone_16-7" x1="385.78" y1="-28.91" x2="451.99" y2="212.08" xlink:href="#Skintone_16"/><linearGradient id="linear-gradient-4" x1="418.69" y1="423.67" x2="461.63" y2="423.67" xlink:href="#linear-gradient"/></defs><title>title2</title><g class="cls-1"><g id="OBJECTS"><path class="cls-2" d="M470,203.68c58.11,40.13-2.3,82.3,4.09,129.4-25.48-42.54,9-64.51-6.18-114.3Z" transform="translate(-248.55 -168.84)"/><path class="cls-3" d="M468.69,218.63c6.15-32.45-11.21-24.78-14.32-19.42-2.16,3.73,3.72,19.81,4.8,21C460.88,222,467.61,224.32,468.69,218.63Z" transform="translate(-248.55 -168.84)"/><path class="cls-4" d="M336.44,199.27c-58.11,40.13,2.3,82.3-4.09,129.4,25.48-42.54-9-64.51,6.18-114.3Z" transform="translate(-248.55 -168.84)"/><path class="cls-5" d="M347.5,274.71s-1.5,10-.38,15.15,11.8,19.23,19.51,26.81c20.05,19.69,40.49,23.16,63.92,7.57,22.86-15.22,30-43.39,30-43.39Z" transform="translate(-248.55 -168.84)"/><path class="cls-6" d="M366.22,456.86c-1.89-.18-17.62,5.1-20.83,10.37-7.38,12.16-13.06,59.8-14,73.68-.58,8.79,4.66,4.92,9,6.68s.51,3.41,11.07,5.28,57.08,1.91,59.12-3-6.11-72.95-12.52-80.69S366.22,456.86,366.22,456.86Z" transform="translate(-248.55 -168.84)"/><path class="cls-7" d="M341.35,477.68c-5.34,18.77-9.19,52-9.94,63.24-.58,8.79,4.66,4.92,9,6.68,4,1.59,1.17,3.1,8.42,4.75l12-72.45s-11.54,1.33-14.56-.18A31.33,31.33,0,0,0,341.35,477.68Z" transform="translate(-248.55 -168.84)"/><polygon class="cls-8" points="117.97 349.14 101.58 484.58 118.72 484.58 136.23 352.74 117.97 349.14"/><path class="cls-9" d="M347.33,648.91c.37-1.35-.08-16.47,3.11-19.87s18.95-2,21.37,3.2-1.55,25.66-3,23.42S347.33,648.91,347.33,648.91Z" transform="translate(-248.55 -168.84)"/><path class="cls-10" d="M351.24,639.81c20,.22,22.36,11.63,22.36,26,0,.38,0,.75,0,1.13H328.91c0-.38,0-.75,0-1.13C328.89,651.44,331.26,639.58,351.24,639.81Z" transform="translate(-248.55 -168.84)"/><path class="cls-11" d="M373.43,660.12c.13,1.82.17,3.71.17,5.66,0,.38,0,.75,0,1.13H328.91c0-.38,0-.75,0-1.13,0-1.94,0-3.84.17-5.66Z" transform="translate(-248.55 -168.84)"/><path class="cls-3" d="M337.76,214.22c-6.15-32.45,11.21-24.78,14.32-19.42,2.16,3.73-3.72,19.81-4.8,21C345.56,217.62,338.84,219.91,337.76,214.22Z" transform="translate(-248.55 -168.84)"/><path class="cls-12" d="M467.22,236.48c-1.65-45.74-17.4-67.38-62.24-66-45.8-1.38-64.26,20.36-68.6,67.13C326.65,342.5,472.29,377.41,467.22,236.48Z" transform="translate(-248.55 -168.84)"/><path class="cls-13" d="M465.78,279.25c5.77,0,10.49-6.71,10.49-14.95s-4.71-14.95-10.49-14.95-10.49,6.71-10.49,14.95S460,279.25,465.78,279.25Z" transform="translate(-248.55 -168.84)"/><path class="cls-14" d="M466.06,274.67c2.65,0,4.81-4.34,4.81-9.67s-2.16-9.67-4.81-9.67-4.81,4.35-4.81,9.67S463.41,274.67,466.06,274.67Z" transform="translate(-248.55 -168.84)"/><path class="cls-13" d="M340,279.25c5.78,0,10.49-6.71,10.49-14.95s-4.71-14.95-10.49-14.95-10.49,6.71-10.49,14.95S334.2,279.25,340,279.25Z" transform="translate(-248.55 -168.84)"/><path class="cls-14" d="M338.56,273.61c2.65,0,4.81-4.34,4.81-9.67s-2.16-9.67-4.81-9.67-4.81,4.34-4.81,9.67S335.91,273.61,338.56,273.61Z" transform="translate(-248.55 -168.84)"/><polygon class="cls-15" points="189.93 349.14 206.32 484.58 189.18 484.58 171.67 352.74 189.93 349.14"/><path class="cls-9" d="M457.66,648.91c-.37-1.35.08-16.47-3.11-19.87s-18.95-2-21.37,3.2,1.55,25.66,3,23.42S457.66,648.91,457.66,648.91Z" transform="translate(-248.55 -168.84)"/><path class="cls-10" d="M453.75,639.81c-20,.22-22.36,11.63-22.36,26,0,.38,0,.75,0,1.13h44.67c0-.38,0-.75,0-1.13C476.11,651.44,473.74,639.58,453.75,639.81Z" transform="translate(-248.55 -168.84)"/><path class="cls-11" d="M431.56,660.12c-.13,1.82-.17,3.71-.17,5.66,0,.38,0,.75,0,1.13h44.67c0-.38,0-.75,0-1.13,0-1.94,0-3.84-.17-5.66Z" transform="translate(-248.55 -168.84)"/><path class="cls-9" d="M365.31,462.46c-.15,3.69-10.71,76.57-9.4,79.21,4.72,9.5,94.8,11.67,96.06,1.51.53-4.27-12.09-73.5-12.23-77.2Z" transform="translate(-248.55 -168.84)"/><path class="cls-16" d="M341.68,483.38c2,.74,18.53,4.68,20.81.95s3.83-13.09.64-17.75C351.93,450.25,336,481.25,341.68,483.38Z" transform="translate(-248.55 -168.84)"/><path class="cls-17" d="M398.26,453.17c-5.52-6.61-37.86-3.17-48.35,6s-13.69,17.94-14.56,27.08,2.62,12.31,3.79,7.74,4.08-20.75,9.32-25.32,15.5-.74,21.55-2.46S398.26,453.17,398.26,453.17Z" transform="translate(-248.55 -168.84)"/><path class="cls-18" d="M403.94,353h.5c7.47-.28,13.85-.69,19.75-1,.28,0,.67-.24.95-.25,12.62-.58,25.4,1.9,33.75,8.9-8.63,27.46-15.06,86.5-11.43,138.39.23,3.22-90,.85-89.77-2.37,4.6-53.36,4.3-113.61-5.06-137.59,6.16-7.24,18.61-7.92,30.61-7.38.2,0,.53.36.73.37C391.44,352.45,398.57,352.81,403.94,353Z" transform="translate(-248.55 -168.84)"/><path class="cls-19" d="M413.89,326.69c-.57,8.28-.34,27.27,11.25,25.11,1.28,9.26-14.36,12.43-21,12.33-6.59.1-22.22-3.13-20.95-12.39,11.6,2.15,11.82-16.77,11.25-25.06l9.7,1Z" transform="translate(-248.55 -168.84)"/><path class="cls-20" d="M257.46,319c1.7,1.57,9.12,11.28,12.13,15.24l.21-.24c-2-3.71-6.44-11.76-7.58-14.34-1.49-3.39,1.7-5.37,3.51-2s8.52,14.67,9.94,16.44c.83,1,1.73,2.56,3.19,4.43.46-1.9,1.92-8,2.8-12.52,1.05-5.36,5.07-4.39,3.71,2.74s-2.69,22.13-.31,25.18l20.71,32.78c5.79-3.69,50.8-22.9,54.29-25.58l2.46,21.51S317.21,404,307.13,408c-4.37,1.75-6.61,1-9.39-3.07-7.69-11.13-20.53-41.31-25.44-45,0,0-2.65-1.72-2.8-1.82a78.08,78.08,0,0,1-8.14-5.89c-.82-.76-1.37-1.3-1.75-1.72h0c-3.77-3.23-8.56-7.59-10.36-11.29-1.68-3.46-.1-4.28,2.38-2.45a96.57,96.57,0,0,1,9.11,7.4v0c-.57-.85-8-11.78-10.09-14.52s.33-5.42,2.13-4c1.55,1.23,10.13,10.93,12.44,13.55l.09-.1c-2-3.07-9.34-14.61-10.43-16.87C253.62,319.62,255.32,317,257.46,319Z" transform="translate(-248.55 -168.84)"/><path class="cls-18" d="M360.78,353.81c-11.5,3.48-50.15,23.88-47.6,29.13s5.36,17.38,7.78,20.28,25.84-3.1,38.16-9.6C367,389.45,367.83,351.67,360.78,353.81Z" transform="translate(-248.55 -168.84)"/><path class="cls-21" d="M340,264.84c0,41.84,41.78,73.65,62.75,75.76,23.3,2.12,62.73-33.92,62.73-75.76s-28.09-75.76-62.73-75.76S340,223,340,264.84Z" transform="translate(-248.55 -168.84)"/><path class="cls-22" d="M416.59,247.65c8.8-9.37,29-8.09,29.5.39C451.39,238.68,420.71,233.85,416.59,247.65Z" transform="translate(-248.55 -168.84)"/><path class="cls-22" d="M389.39,246.36c-8.8-9.37-29-8.09-29.5.39C354.6,237.39,385.27,232.56,389.39,246.36Z" transform="translate(-248.55 -168.84)"/><ellipse class="cls-23" cx="125.7" cy="94.75" rx="5.51" ry="6.65"/><ellipse class="cls-24" cx="123.78" cy="92.72" rx="1.82" ry="2.22"/><ellipse class="cls-23" cx="182.64" cy="94.75" rx="5.51" ry="6.65"/><ellipse class="cls-24" cx="180.73" cy="92.72" rx="1.82" ry="2.22"/><path class="cls-25" d="M397.21,284.91c0,2.7,2.47,4.88,5.52,4.88s5.5-2.18,5.5-4.88v-.06a28.57,28.57,0,0,1-4.95.42,27.49,27.49,0,0,1-6.06-.64C397.21,284.72,397.21,284.82,397.21,284.91Z" transform="translate(-248.55 -168.84)"/><path class="cls-26" d="M378.94,299.68c-.05,22,47.61,22,47.56,0C415.33,307.28,390.11,307.28,378.94,299.68Z" transform="translate(-248.55 -168.84)"/><path class="cls-27" d="M386,311.81c9,5.78,24.42,5.79,33.42,0-3.28-2.76-9.53-4.63-16.71-4.63S389.29,309,386,311.81Z" transform="translate(-248.55 -168.84)"/><path class="cls-28" d="M423.6,301.34c-11.15,5.4-30.73,5.39-41.84,0C387.7,313.74,417.46,313.44,423.6,301.34Z" transform="translate(-248.55 -168.84)"/><path class="cls-29" d="M458.24,199.7c5.19,23.25,12.39,39,4.75,44-15.7,10.25-88.12-13.81-92.23-36.57-.59,12.5-19.21,37.17-28.41,37-2.72,0,1.7-7-.24-11.17-9.79-27.48,22.85-58.32,46.51-63.12C413.49,164.81,453.66,179.23,458.24,199.7Z" transform="translate(-248.55 -168.84)"/><path class="cls-30" d="M374.26,243c11.07,0,20.05,10.77,20.05,24.05s-9,24.05-20.05,24.05S354.2,280.32,354.2,267a27.23,27.23,0,0,1,4-14.37c3.66-5.88,9.5-9.69,16.08-9.69Zm0,2.64c-9.86,0-17.85,9.59-17.85,21.42s8,21.42,17.85,21.42,17.85-9.59,17.85-21.42S384.12,245.62,374.26,245.62Z" transform="translate(-248.55 -168.84)"/><path class="cls-30" d="M431.93,243C443,243,452,253.75,452,267s-9,24.05-20.05,24.05S411.87,280.32,411.87,267s9-24.05,20.05-24.05Zm0,2.64c-9.86,0-17.85,9.59-17.85,21.42s8,21.42,17.85,21.42,17.85-9.59,17.85-21.42S441.79,245.62,431.93,245.62Z" transform="translate(-248.55 -168.84)"/><path class="cls-30" d="M392.17,263.38a8.13,8.13,0,0,1,2.37-2.89,14.65,14.65,0,0,1,8.94-2.58,15.9,15.9,0,0,1,8.71,2.4,7,7,0,0,1,2.2,2.41l-2,1.52a4.51,4.51,0,0,0-1.42-1.5,13.82,13.82,0,0,0-7.55-2,12.63,12.63,0,0,0-7.68,2.14,5.52,5.52,0,0,0-1.62,1.95Z" transform="translate(-248.55 -168.84)"/><path class="cls-30" d="M358.45,254.06c-.29.62-2.77,8-2.77,8s-1.82-4.66-3.57-6c-3.62-2.73-10.11-5.16-14.17-6.45l0-3.49Z" transform="translate(-248.55 -168.84)"/><path class="cls-30" d="M447.59,254.06c.29.62,2.77,8,2.77,8s1.82-4.66,3.57-6c3.62-2.73,10.11-5.16,14.17-6.45l0-3.49Z" transform="translate(-248.55 -168.84)"/><path class="cls-31" d="M397.76,189c-.44,1.93-30.94,1.95-27,18.13S416,244.8,414.86,242.44s-5.45-18.62-5.45-18.62c15.66,14.94,31.92,29.52,52.91,26.95,0,0-14.18-8.48-22.62-18.33s-15.15-23.56-15.15-23.56l-27.1-18.24Z" transform="translate(-248.55 -168.84)"/><g class="cls-32"><path class="cls-28" d="M379.69,192.07c12.48,14.35,35.56,30.43,50.24,40.78C411.47,227.19,387.29,215.52,379.69,192.07Z" transform="translate(-248.55 -168.84)"/></g><g class="cls-32"><path class="cls-28" d="M393.65,184.65c15.48,15.75,31.63,32.1,50.06,42.4l9.11,5.12C426.41,227.61,408.45,211.86,393.65,184.65Z" transform="translate(-248.55 -168.84)"/></g><g class="cls-32"><path class="cls-28" d="M408.44,179.6c11.14,11,32.95,33.8,46.89,39.77-2.63,1.11-2.07,1.28-5.06.67C432.57,216.43,417.72,196.24,408.44,179.6Z" transform="translate(-248.55 -168.84)"/></g><g class="cls-32"><path class="cls-28" d="M428.26,182.29c14.57,7.91,16.83,13.4,23.45,30.67C438.8,200.86,437.89,197.06,428.26,182.29Z" transform="translate(-248.55 -168.84)"/></g><g class="cls-32"><path class="cls-28" d="M363.78,187.35c-9.6,14.69-15.83,25.44-20.93,42.81-1.16-6.41-1.56-5.4-.25-12.18C345.92,200.69,351.9,195.56,363.78,187.35Z" transform="translate(-248.55 -168.84)"/></g><g class="cls-32"><path class="cls-28" d="M368.81,197.8c-9.28,16.73-10.91,23.32-23.17,38.42C352.06,215.3,353.11,210.06,368.81,197.8Z" transform="translate(-248.55 -168.84)"/></g><path class="cls-33" d="M356.4,267c0,11.83,8,21.42,17.85,21.42s17.85-9.59,17.85-21.42-8-21.42-17.85-21.42S356.4,255.21,356.4,267Zm23.36-3.45c0,3.68-2.47,6.66-5.52,6.66s-5.51-3-5.51-6.66,2.46-6.65,5.51-6.65S379.76,259.91,379.76,263.59Z" transform="translate(-248.55 -168.84)"/><path class="cls-33" d="M414.07,267c0,11.83,8,21.42,17.85,21.42s17.85-9.59,17.85-21.42-8-21.42-17.85-21.42-17.85,9.59-17.85,21.42Zm22.63-3.45c0,3.68-2.47,6.66-5.52,6.66s-5.51-3-5.51-6.66,2.46-6.65,5.51-6.65S436.7,259.91,436.7,263.59Z" transform="translate(-248.55 -168.84)"/><path class="cls-34" d="M349.4,217.31c-1.75,2.11-11.42,16.62-11.42,16.62-.49,28.31.74,34.29,7.35,54.95C343.68,270,348.6,223.51,349.4,217.31Z" transform="translate(-248.55 -168.84)"/><path class="cls-35" d="M457.07,215.4c1.75,2.11,9,6.44,9,6.44,5.44,37.91,1.4,49.38-4.95,65.13C462.79,268.13,457.88,221.6,457.07,215.4Z" transform="translate(-248.55 -168.84)"/><path class="cls-36" d="M441,352.4c-3.13-3.43-9.4-2.17-9.32-.77S413.47,398,393.38,427.5s-39,42.2-39,42.2-.63,8.19,2,8.44,20.68-10.55,41.94-38.69C414.16,418.5,431.83,379.42,441,352.4Z" transform="translate(-248.55 -168.84)"/><path class="cls-18" d="M459.94,362.1c4.25,13.36,15.41,64,10.38,64.48s-14.86,4.69-18.21,4-12.75-27.31-15.43-43.22C435,377.12,457.33,353.91,459.94,362.1Z" transform="translate(-248.55 -168.84)"/><polygon class="cls-37" points="185.73 169.84 137.38 261.82 186.6 296.91 230.87 202.12 185.73 169.84"/><polygon class="cls-17" points="170.59 187.81 146.19 271.38 190.5 288.34 211.25 203.44 170.59 187.81"/><path class="cls-38" d="M461,431.16a80.41,80.41,0,0,0-4.34-11.77,52.91,52.91,0,0,0-2.25-15c-2.42-7.57-4.67-4.11-4.25-.23a64.54,64.54,0,0,1,.21,8.39l0,0a28.3,28.3,0,0,0-3.62-3c-1.58-.95-12.73-11.69-15-13.81s-4.38,2-2.37,4.23,10.4,10.92,10.4,10.92-15.07-11.29-17.28-12.16-3.69,2.78-2,4.46,16.16,12.68,16.16,12.68-14.08-8.45-15.88-9-3.09,3.63-.61,5.18,13.46,9.11,13.46,9.11-4.29-1.79-10.28-4.23c-3.42-1.39-5.32,4.24,1.45,6.23,3,.88,9,4,12.82,5.31a50.26,50.26,0,0,0,8.93,5.29c-.92,6.33-1.18,15.81,5.23,18C461.3,455.13,462.75,437.35,461,431.16Z" transform="translate(-248.55 -168.84)"/></g></g></svg>